<svg xmlns="http://www.w3.org/2000/svg" viewBox="0 0 1559 904.14"><defs><style>.cls-1{fill:#2f2933;}.cls-2,.cls-9{fill:none;stroke:#10273d;stroke-width:8px;}.cls-2{stroke-linecap:round;stroke-linejoin:round;}.cls-3{fill:#fff;}.cls-4{fill:#10273d;}.cls-5{fill:#29d9c2;}.cls-6{fill:#bdf271;}.cls-7{fill:#a6d1e7;}.cls-8{fill:#01a2a6;}.cls-10{fill:#a5d650;}</style></defs><title>city</title><g id="referensi"><path class="cls-1" d="M2721.46,6126.88a4,4,0,0,1-3.8-2.76h0a43.89,43.89,0,0,1-2.17-13.64h0a44,44,0,0,1,25-39.7h0a61.5,61.5,0,0,1,61.46-59.29h0a61.43,61.43,0,0,1,50.12,25.86h0a35.12,35.12,0,0,1,13.63-2.74h0a35.26,35.26,0,0,1,33.56,24.45h0q1.33-.07,2.69-.08h0a51.5,51.5,0,0,1,51.5,51.5h0a51.59,51.59,0,0,1-1.78,13.45h0a4,4,0,0,1-3.86,3H2721.46Zm226.37-4v0Zm-3.17-4a43.42,43.42,0,0,0,.82-8.4h0a43.35,43.35,0,0,0-12.74-30.76h0A43.35,43.35,0,0,0,2902,6067h0a44,44,0,0,0-5.21.32h0a4,4,0,0,1-4.39-3.14h0a27.26,27.26,0,0,0-26.65-21.56h0a27.11,27.11,0,0,0-13.1,3.35h0a4,4,0,0,1-5.31-1.38h0a53.45,53.45,0,0,0-45.34-25.09h0a53.3,53.3,0,0,0-37.83,15.67h0a53.32,53.32,0,0,0-15.67,37.83h0c0,.06,0,.19,0,.39h0a4,4,0,0,1-2.5,3.73h0a36,36,0,0,0-22.5,33.37h0a35.92,35.92,0,0,0,1,8.4h220.17Z" transform="translate(-2382 -5675.78)"/></g><g id="awan_segi6" data-name="awan + segi6"><path class="cls-2" d="M3023.81,6043.64a12,12,0,0,1-12,12H2978a12,12,0,0,1-12-12h0a12,12,0,0,1,12-12h33.72a12,12,0,0,1,12,12Z" transform="translate(-2382 -5675.78)"/><path class="cls-2" d="M3695.45,5976.3a44.79,44.79,0,0,0-20.21,4.8,31.5,31.5,0,0,0-26.75-29.77,66,66,0,0,0-125.55-8c-.5,0-1,0-1.51,0a63,63,0,0,0-60.84,46.62,76.57,76.57,0,0,0-82.35,37.39H3740a44.95,44.95,0,0,0-44.59-51Z" transform="translate(-2382 -5675.78)"/><path class="cls-3" d="M3609.27,5904l-12,148.49,78,3s3-127.49-7.5-145.49S3609.27,5904,3609.27,5904Z" transform="translate(-2382 -5675.78)"/><circle class="cls-4" cx="837.29" cy="202.7" r="4.5"/><circle class="cls-4" cx="539.39" cy="190.52" r="4.5"/><circle class="cls-4" cx="953.43" cy="4.5" r="4.5"/><circle class="cls-4" cx="990.94" cy="270.03" r="4.5"/><circle class="cls-4" cx="876.92" cy="327.03" r="4.5"/><circle class="cls-4" cx="1158.95" cy="114.01" r="4.5"/><circle class="cls-4" cx="534.89" cy="291.03" r="4.5"/><circle class="cls-4" cx="293.37" cy="496.55" r="4.5"/><circle class="cls-4" cx="356.37" cy="162.02" r="4.5"/><circle class="cls-4" cx="611.4" cy="37.5" r="4.5"/><circle class="cls-5" cx="1346.47" cy="433.54" r="4.5"/><circle class="cls-5" cx="776.41" cy="64.51" r="4.5"/><circle class="cls-5" cx="678.9" cy="207.02" r="4.5"/><circle class="cls-5" cx="252.86" cy="249.03" r="4.5"/></g><g id="gunung"><path class="cls-3" d="M3253,6197.92s-118-138-164-190c-50.46-57-69.73,17.07-96,10-52-14-254,258-260,262" transform="translate(-2382 -5675.78)"/><path class="cls-6" d="M3023,6001.92s-34,104-34,126,16,54,16,54l-22-16s4,14,4,26,32,26,30,42,18,16,18,16l-8,26,20.67,2.67,32.46-14.26-35.13-2.41,81.33-40.67,112-2.67,6.67-26.67s-94-110-118-136-56-76-76-68S3023,6001.92,3023,6001.92Z" transform="translate(-2382 -5675.78)"/><path class="cls-1" d="M2729.67,6282.14a4,4,0,0,1,.86-5.37h0l.15-.15h0c.2-.22.52-.57.92-1h0c.8-.93,1.92-2.28,3.31-4h0c2.79-3.43,6.67-8.33,11.45-14.37h0c9.57-12.08,22.75-28.77,38.12-47.79h0c30.74-38,70.23-85.38,107.21-124h0c24.68-25.73,48.17-47.56,67.56-60.29h0c11.13-7.23,20.84-11.7,29.55-11.78h0a20.09,20.09,0,0,1,5.23.66h0a9.81,9.81,0,0,0,2.58.34h0a15.07,15.07,0,0,0,7.52-2.42h0a59.69,59.69,0,0,0,8.88-6.77h0c6.29-5.52,13.12-12.51,21.31-17.42h0a36,36,0,0,1,18.6-5.6h0c11.73,0,24.51,6.6,39.07,23.08h0c46.05,52.06,164,190,164,190.05h0a4,4,0,0,1-.44,5.64h0a4,4,0,0,1-5.64-.44h0l-19.15-22.37h0c-11.78-13.75-28-32.62-45.59-53.12h0c-35.24-41-76.25-88.49-99.21-114.46h0c-13.87-15.65-24.58-20.39-33.08-20.38h0c-7.64,0-14.57,3.86-21.37,9.31h0c-6.79,5.42-13.15,12.22-19.92,17.11h0c-4.51,3.23-9.41,5.76-15,5.78h0a18,18,0,0,1-4.65-.62h0a12,12,0,0,0-3.15-.39h0c-5.3-.06-13.33,3-22.76,8.93h0c-9.45,5.9-20.36,14.53-32.1,25h0c-23.5,21-50.34,49.65-76.47,79.42h0c-52.28,59.59-101.68,123.81-116.84,142.44h0c-2.05,2.52-3.41,4.15-4.38,5.13h0a6.52,6.52,0,0,1-1,.89h0a4,4,0,0,1-2.21.67h0a4,4,0,0,1-3.33-1.78Z" transform="translate(-2382 -5675.78)"/><path class="cls-6" d="M3439,6099.92s-5,32-5,41,15,11,18,22,7,34,7,34-12-28-18-31a72,72,0,0,1-10-6s11,17,12,28,7,25,7,25,2,23,3,35,23,32,23,32h174s-112.76-169.18-177-184C3447,6089.92,3439,6099.92,3439,6099.92Z" transform="translate(-2382 -5675.78)"/><path class="cls-2" d="M3128.43,6328.34s198.86-213.88,225.86-225.88,36,15,106.49-7.5c60.3-19.24,234.7,239.38,234.7,239.38Z" transform="translate(-2382 -5675.78)"/><path class="cls-6" d="M3323,6277.92s8-46,10-51,24-30,27-41,9-29,9-29-5,51-13,67-3,54-3,54Z" transform="translate(-2382 -5675.78)"/><path class="cls-6" d="M3380,6275.92s7-41,7-47,6-50,7-61,5-40,5-40,4,79,2,93,1,20,2,26-2,30-2,30Z" transform="translate(-2382 -5675.78)"/><path class="cls-3" d="M3496.78,6169.46s12,7.5,15,27,21,28.5,21,28.5l-27-12A97.29,97.29,0,0,0,3496.78,6169.46Z" transform="translate(-2382 -5675.78)"/><path class="cls-3" d="M3052,6045.92s31,16,34,31a159.42,159.42,0,0,1,2.8,29.55s12,0,15,6,16.5,37.5,16.5,37.5-22.5-25.5-28.5-30-11.8-41.55-14.8-46S3052,6045.92,3052,6045.92Z" transform="translate(-2382 -5675.78)"/><path class="cls-3" d="M3068,6246.92s-25-22-27-40-9-36-9-36l-27-35s41,20,43,31,32,78,32,78Z" transform="translate(-2382 -5675.78)"/><polygon class="cls-6" points="529 600.14 569 442.14 551 606.14 529 600.14"/><polygon class="cls-6" points="422.38 603.06 491.39 531.05 446.38 597.06 422.38 603.06"/></g><g id="gunung_putih" data-name="gunung putih"><polygon class="cls-3" points="721 544.14 785 514.14 856.33 542.8 841 549.47 905.67 586.14 878.33 586.14 909.67 602.8 1214 602.8 1216 527.14 1215 497.14 1293 616.14 1014 688.14 683 662.14 721 544.14"/></g><g id="walikota"><polygon class="cls-5" points="657.28 603.67 327.29 600.67 217.8 694.67 639.08 694.67 639.08 637.14 606.08 635.14 657.28 603.67"/><polygon class="cls-5" points="909.8 603.67 1239.78 600.67 1349.28 694.67 928 694.67 928 637.14 961 635.14 909.8 603.67"/><polygon class="cls-5" points="680 598.14 864 598.14 930 634.14 956 632.14 874 586.14 692 585.14 680 598.14"/><polygon class="cls-5" points="740 546.14 828 546.14 897 582.14 868 586.14 816 558.14 726 558.14 740 546.14"/><polygon class="cls-5" points="783 517.14 800 545.14 844 541.14 783 517.14"/><polygon class="cls-5" points="647 656.14 734 656.14 927 656.14 928 637.14 645 637.14 647 656.14"/><polygon class="cls-5" points="713 667.14 854 667.14 838 653.14 734 656.14 713 667.14"/><polygon class="cls-5" points="824.33 712.81 824.33 758.14 883.67 758.14 883.67 710.81 824.33 712.81"/><polygon class="cls-5" points="757.67 712.81 757.67 758.14 817 758.14 817 710.81 757.67 712.81"/><polygon class="cls-5" points="691.67 712.81 691.67 758.14 751 758.14 751 710.81 691.67 712.81"/><polygon class="cls-5" points="693.67 804.22 693.67 881.64 706 881.64 706 800.81 693.67 804.22"/><polygon class="cls-5" points="759.67 804.22 759.67 881.64 772 881.64 772 800.81 759.67 804.22"/><polygon class="cls-5" points="826.17 804.22 826.17 881.64 838.5 881.64 838.5 800.81 826.17 804.22"/><polygon class="cls-7" points="890.66 804.22 890.66 881.64 903 881.64 903 800.81 890.66 804.22"/><polygon class="cls-8" points="962.33 695.47 962.33 716.14 929.67 716.14 929.67 692.14 962.33 695.47"/><polygon class="cls-8" points="962.33 867.45 962.33 894.14 929.67 894.14 929.67 863.14 962.33 867.45"/><polygon class="cls-8" points="952.33 716.81 952.33 775.47 929 775.47 930.33 716.81 952.33 716.81"/><polygon class="cls-8" points="952.33 789.31 952.33 867.47 929 867.47 930.33 789.31 952.33 789.31"/><polygon class="cls-8" points="959.5 777.64 959.5 790.14 931 788.14 932.5 774.64 959.5 777.64"/><rect class="cls-8" x="943.67" y="790.8" width="372.67" height="5.33"/><rect class="cls-5" x="949" y="714.14" width="367.33" height="14.67"/><rect class="cls-5" x="986.33" y="731.47" width="20.67" height="28.67"/><rect class="cls-5" x="1047.33" y="731.47" width="20.67" height="28.67"/><rect class="cls-7" x="1229.33" y="731.47" width="20.67" height="28.67"/><rect class="cls-5" x="569.48" y="731.47" width="20.67" height="28.67"/><rect class="cls-5" x="477.99" y="731.47" width="20.67" height="28.67"/><rect class="cls-5" x="416.49" y="731.47" width="20.67" height="28.67"/><rect class="cls-5" x="386.49" y="731.47" width="20.67" height="28.67"/><rect class="cls-7" x="962" y="806.14" width="29" height="42"/><rect class="cls-5" x="490.32" y="806.14" width="29" height="42"/><rect class="cls-5" x="395.82" y="806.14" width="29" height="42"/><rect class="cls-7" x="1150" y="806.14" width="29" height="42"/><polygon class="cls-5" points="865 649.14 908 682.14 908 691.14 913 691.14 913 715.64 908 715.64 908 750.64 912 750.64 912 777.14 908.5 777.14 908.5 788.64 912.5 788.64 912.5 881.14 893 878.14 893.5 815.14 897 812.64 896 768.64 894 756.14 886.5 699.64 886 684.14 832.5 646.14 865 649.14"/><rect class="cls-8" x="631" y="695.64" width="12.5" height="20"/><rect class="cls-8" x="626.5" y="715.64" width="20" height="62"/><rect class="cls-7" x="634" y="775.64" width="9" height="13"/><rect class="cls-8" x="627.5" y="787.64" width="16.5" height="78"/><rect class="cls-8" x="635.5" y="864.14" width="7.5" height="29.5"/><rect class="cls-8" x="246.83" y="696.67" width="390.42" height="8.97"/><rect class="cls-8" x="255.83" y="788.17" width="389.98" height="18"/><polygon class="cls-8" points="950 601.14 1001 646.14 957 646.14 957 695.14 925 696.14 928 637.14 961 635.14 914 604.14 950 601.14"/><polygon class="cls-8" points="657 604.14 590.32 648.67 629.31 648.67 629.31 696.67 645 697.14 645 635.14 621 633.14 657 604.14"/><polygon class="cls-2" points="713 546.08 785.28 516.32 857.56 546.08 713 546.08"/><polyline class="cls-2" points="874.39 585.86 963.28 635.33 610.66 635.33 692.93 586"/><polyline class="cls-2" points="825.21 546.14 908.53 585.89 662.02 585.89 746.62 546.14"/><polyline class="cls-2" points="657.84 602.45 336.42 602.45 220.54 696.47 641.51 696.47"/><line class="cls-2" x1="645.45" y1="635.07" x2="645.45" y2="892.35"/><line class="cls-2" x1="927.51" y1="635.07" x2="927.51" y2="892.35"/><polygon class="cls-2" points="731.79 654.93 679.09 684.79 891.69 684.79 838.98 654.93 731.79 654.93"/><rect class="cls-2" x="684.81" y="685.42" width="201.16" height="13.28"/><rect class="cls-2" x="669.21" y="700.12" width="233.24" height="9.4"/><rect class="cls-2" x="669.21" y="760.37" width="233.24" height="9.4"/><rect class="cls-2" x="669.21" y="793.9" width="233.24" height="9.4"/><rect class="cls-2" x="674.31" y="772.06" width="223.04" height="21.73"/><rect class="cls-2" x="682.33" y="710.51" width="10.69" height="49.57"/><rect class="cls-2" x="678.99" y="804.53" width="17.37" height="12.39"/><rect class="cls-2" x="744.59" y="804.53" width="17.37" height="12.39"/><rect class="cls-2" x="809.28" y="804.53" width="17.37" height="12.39"/><rect class="cls-2" x="878.52" y="804.53" width="17.37" height="12.39"/><rect class="cls-2" x="881.56" y="710.51" width="10.69" height="49.57"/><rect class="cls-2" x="747.44" y="710.51" width="10.69" height="49.57"/><rect class="cls-2" x="812.56" y="710.51" width="10.69" height="49.57"/><rect class="cls-2" x="682.33" y="816.92" width="10.69" height="64.72"/><rect class="cls-2" x="881.56" y="816.92" width="10.69" height="64.72"/><rect class="cls-2" x="747.44" y="816.92" width="10.69" height="64.72"/><rect class="cls-2" x="812.56" y="816.92" width="10.69" height="64.72"/><rect class="cls-2" x="245.32" y="696.47" width="400.13" height="19.68"/><line class="cls-2" x1="646.56" y1="616.54" x2="688.27" y2="616.54"/><line class="cls-2" x1="741.35" y1="616.54" x2="809.59" y2="616.54"/><line class="cls-2" x1="700.9" y1="616.54" x2="714.81" y2="616.54"/><line class="cls-2" x1="836.13" y1="616.54" x2="850.03" y2="616.54"/><line class="cls-2" x1="871.83" y1="616.54" x2="878.78" y2="616.54"/><rect class="cls-2" x="244.76" y="776.52" width="398.98" height="12"/><line class="cls-2" x1="258.25" y1="718.02" x2="258.25" y2="775.02"/><line class="cls-2" x1="258.25" y1="791.52" x2="258.25" y2="868.02"/><rect class="cls-9" x="293.65" y="730.52" width="19.56" height="30"/><rect class="cls-9" x="306.15" y="804.52" width="28.37" height="43.5"/><rect class="cls-9" x="396.15" y="804.52" width="28.37" height="43.5"/><rect class="cls-9" x="490.64" y="804.52" width="28.37" height="43.5"/><rect class="cls-9" x="583.64" y="804.52" width="28.37" height="43.5"/><rect class="cls-9" x="326.65" y="730.52" width="19.56" height="30"/><rect class="cls-9" x="385.72" y="730.52" width="19.56" height="30"/><rect class="cls-9" x="418.72" y="730.52" width="19.56" height="30"/><rect class="cls-9" x="476.72" y="730.52" width="19.56" height="30"/><rect class="cls-9" x="509.72" y="730.52" width="19.56" height="30"/><rect class="cls-9" x="568.72" y="730.52" width="19.56" height="30"/><rect class="cls-9" x="601.72" y="730.52" width="19.56" height="30"/><polyline class="cls-9" points="649.5 894.47 254.5 894.47 254.5 866.47 649.5 866.47"/><polyline class="cls-2" points="908.3 602.45 1239.19 602.45 1355.08 696.47 934.1 696.47"/><rect class="cls-2" x="930.16" y="696.47" width="400.13" height="19.68"/><rect class="cls-2" x="931.88" y="776.52" width="398.98" height="12"/><line class="cls-2" x1="1317.36" y1="718.02" x2="1317.36" y2="775.02"/><line class="cls-2" x1="1317.36" y1="791.52" x2="1317.36" y2="868.02"/><rect class="cls-9" x="1262.39" y="730.52" width="19.56" height="30"/><rect class="cls-9" x="1241.09" y="804.52" width="28.37" height="43.5"/><rect class="cls-9" x="1151.1" y="804.52" width="28.37" height="43.5"/><rect class="cls-9" x="1056.6" y="804.52" width="28.37" height="43.5"/><rect class="cls-9" x="963.61" y="804.52" width="28.37" height="43.5"/><rect class="cls-9" x="1229.39" y="730.52" width="19.56" height="30"/><rect class="cls-9" x="1170.33" y="730.52" width="19.56" height="30"/><rect class="cls-9" x="1137.33" y="730.52" width="19.56" height="30"/><rect class="cls-9" x="1079.33" y="730.52" width="19.56" height="30"/><rect class="cls-9" x="1046.33" y="730.52" width="19.56" height="30"/><rect class="cls-9" x="987.33" y="730.52" width="19.56" height="30"/><rect class="cls-9" x="954.33" y="730.52" width="19.56" height="30"/><polyline class="cls-9" points="926.11 894.47 1321.11 894.47 1321.11 866.47 926.11 866.47"/><rect class="cls-2" x="646.46" y="882.53" width="279.65" height="11.94"/><line class="cls-2" x1="698.31" y1="569.18" x2="770.31" y2="569.18"/><line class="cls-2" x1="786.31" y1="569.18" x2="796.33" y2="569.18"/><line class="cls-2" x1="829.64" y1="569.18" x2="839.67" y2="569.18"/></g><g id="tuguputih"><path class="cls-3" d="M3599,6264.92v32l-26,1s-7,13-5,27,2,26,5,31,15,5,15,5l10,10-43,7-2,13,3,11-5,1-1,21-12,2-1,27H3399l-2,14-41-1v16l-19-1,11,15s-22,26-18,41,20,35,20,35h471l-42-98-47-30,2-16-11-6-4-20-3-21-43-5,11-15s17-3,18-7,13-50-6-57S3599,6264.92,3599,6264.92Z" transform="translate(-2382 -5675.78)"/><path class="cls-5" d="M3923,6566.85s14-17.06,14-25.58-607,0-607,0,11,29,20,30.7S3923,6566.85,3923,6566.85Z" transform="translate(-2382 -5675.78)"/><rect class="cls-5" x="977" y="791.14" width="559" height="14"/><path class="cls-5" d="M3760.76,6524.94a3,3,0,0,0-3-3H3333.28a3,3,0,0,0-3,3h0a3,3,0,0,0,3,3h424.48a3,3,0,0,0,3-3Z" transform="translate(-2382 -5675.78)"/><path class="cls-7" d="M3801.67,6524.58a3.67,3.67,0,0,1-3.67,3.67h-16a3.67,3.67,0,0,1-3.67-3.67h0a3.67,3.67,0,0,1,3.67-3.67h16a3.67,3.67,0,0,1,3.67,3.67Z" transform="translate(-2382 -5675.78)"/></g><g id="awan_putih" data-name="awan putih"><path class="cls-3" d="M2611.67,6438.25s44,0,50.67,32,1.67,37.67,1.67,37.67,21,6,25,12,5.67,8.67,5.67,8.67,26.33-35.33,57-24.67,42.33,48.33,47.33,76l-401-2" transform="translate(-2382 -5675.78)"/><path class="cls-6" d="M2559.51,6477s2.82-1.08,10.31,13.45c-1.49-15.19,12.18-55,64.68-50.53-36-4.5-42.5-5.5-54.18,2.53-23.74,16.32-20.81,34.55-20.81,34.55" transform="translate(-2382 -5675.78)"/><path class="cls-6" d="M2704,6538.92s29-39,62.5-27.5c-32-16.5-60-3-68,5.5-2,7.5,2,16,2,16l3.5,6" transform="translate(-2382 -5675.78)"/><path class="cls-6" d="M2657.5,6507.09s-28,1.33-36,28.67c8.67-14,28-23.33,46.67-19.33,9.5,1.17,11.33-9.33-4.67-10A51.32,51.32,0,0,0,2657.5,6507.09Z" transform="translate(-2382 -5675.78)"/><path class="cls-6" d="M2534.5,6476.42s-25,17-4,40c11,12,24,0,43,8s11,18,14,27,46,4,52,11,12,9,12,9h-250s-6.5-24.5,14.5-39.5l13.5-8H2446s26-40.5,68.5-26C2525.5,6476.42,2527,6479.37,2534.5,6476.42Z" transform="translate(-2382 -5675.78)"/><path class="cls-10" d="M2442.5,6527.42s-22.5-1.5-20.5,43c35,0,128.5-3.5,128.5-3.5s5.5-21-25-23.5-33.5-9-29.5-24.5S2475.5,6482.92,2442.5,6527.42Z" transform="translate(-2382 -5675.78)"/></g><g id="tugu_line_warna" data-name="tugu line+warna"><path class="cls-1" d="M2796.27,6573.92a4,4,0,0,1-3.94-4.06h0q0-.74,0-1.47h0c0-20.32-6.51-35.25-16.52-45.26h0c-10-10-23.76-15.16-38.82-15.17h0a54.31,54.31,0,0,0-39.29,16.75h0a4,4,0,0,1-3,1.23h0a4,4,0,0,1-2.92-1.37h0a39.38,39.38,0,0,0-29-13.58h0a4,4,0,0,1-3.24-1.77h0a4,4,0,0,1-.41-3.68h0a49.85,49.85,0,0,0,3.38-18.08h0a49.82,49.82,0,0,0-14.65-35.36h0a49.83,49.83,0,0,0-35.36-14.65h0a50,50,0,0,0-49.06,40.31h0a4,4,0,0,1-2.53,3h0a4,4,0,0,1-3.86-.6h0A24.36,24.36,0,0,0,2542,6475h0a24.49,24.49,0,0,0-21.48,12.71h0a4,4,0,0,1-2.53,2h0a4,4,0,0,1-3.15-.53h0a40.76,40.76,0,0,0-22.34-6.63h0a40.85,40.85,0,0,0-29,12h0a40.85,40.85,0,0,0-12,29h0a4,4,0,0,1-4,4h0a4,4,0,0,1-4-4h0a49,49,0,0,1,49-49h0a48.76,48.76,0,0,1,23.23,5.86h0A32.47,32.47,0,0,1,2542,6467h0a32.36,32.36,0,0,1,15,3.67h0a58,58,0,0,1,55.51-41.17h0a58,58,0,0,1,58,58h0a57.88,57.88,0,0,1-2.23,15.93h0a47.37,47.37,0,0,1,26.67,12.87h0A62.27,62.27,0,0,1,2737,6500h0c16.87,0,32.8,5.86,44.47,17.5h0c11.68,11.63,18.89,28.9,18.87,50.92h0q0,.79,0,1.59h0a4,4,0,0,1-4,3.94h-.06Z" transform="translate(-2382 -5675.78)"/><path class="cls-1" d="M2700,6571a4,4,0,0,1-2.14-5.24h0a39,39,0,0,0,2-6.33h0a4,4,0,0,1,4.8-3h0a4,4,0,0,1,3,4.8h0a47.15,47.15,0,0,1-2.47,7.63h0a4,4,0,0,1-3.69,2.45h0a4,4,0,0,1-1.55-.31Z" transform="translate(-2382 -5675.78)"/><path class="cls-1" d="M2700.72,6546.65A39.51,39.51,0,0,0,2661.4,6511h0a39.37,39.37,0,0,0-15.38,3.1h0a4,4,0,0,1-5.24-2.13h0a4,4,0,0,1,2.13-5.24h0a47.35,47.35,0,0,1,18.49-3.73h0a47.51,47.51,0,0,1,47.28,42.91h0a4,4,0,0,1-3.6,4.36h0l-.39,0h0a4,4,0,0,1-4-3.62Z" transform="translate(-2382 -5675.78)"/><path class="cls-2" d="M2571.24,6499.47a28.5,28.5,0,1,0-57,0" transform="translate(-2382 -5675.78)"/><polygon class="cls-5" points="1342 747.47 1342 747.47 1168.35 747.47 1168.35 747.47 1168.35 724.62 1168.35 724.62 1342 724.62 1342 724.62 1342 747.47"/><polygon class="cls-5" points="1267 612.14 1267 232.14 1279 230.14 1279 616.14 1267 612.14"/><polygon class="cls-5" points="1227 612.14 1227 232.14 1239 230.14 1239 616.14 1227 612.14"/><path class="cls-5" d="M3619,5898.92c0-1.5,5.5-56.5,11-59.5s17,5.5,17,5.5l2.5,53s-9-12.5-15.5-10S3619,5898.92,3619,5898.92Z" transform="translate(-2382 -5675.78)"/><rect class="cls-5" x="1227" y="632.14" width="54" height="36" rx="6" ry="6"/><rect class="cls-5" x="1295" y="632.14" width="29" height="36" rx="6" ry="6"/><rect class="cls-5" x="1185" y="632.14" width="29" height="36" rx="6" ry="6"/><path class="cls-2" d="M3619.63,5903.29V5866c0-5.7,5.42-26.41,12.11-26.41h6.46c6.69,0,12.11,20.71,12.11,26.41v42.87" transform="translate(-2382 -5675.78)"/><path class="cls-2" d="M3644.61,5829a9.79,9.79,0,0,1-9.79,9.79h0A9.79,9.79,0,0,1,3625,5829h0a9.79,9.79,0,0,1,9.79-9.79h0a9.79,9.79,0,0,1,9.79,9.79Z" transform="translate(-2382 -5675.78)"/><path class="cls-2" d="M3622.57,6293.5V5920.26c0-5.41-4.38-15.67-9.79-15.67h-5.22c-5.41,0-9.79,10.26-9.79,15.67V6293.5Z" transform="translate(-2382 -5675.78)"/><path class="cls-2" d="M3647.38,6293.5V5906.55c0-5.41-4.38-17.63-9.79-17.63h-5.22c-5.41,0-9.79,12.22-9.79,17.63V6293.5Z" transform="translate(-2382 -5675.78)"/><path class="cls-2" d="M3673.49,6293.5V5920.26c0-5.41-4.38-15.67-9.79-15.67h-5.22c-5.41,0-9.79,10.26-9.79,15.67V6293.5Z" transform="translate(-2382 -5675.78)"/><rect class="cls-2" x="1186.39" y="619.86" width="135.79" height="62.67" rx="9.79" ry="9.79"/><polyline class="cls-2" points="1204.34 682.21 1220.99 701.79 1289.54 701.79 1303.24 685.14"/><polygon class="cls-2" points="1336.54 726.93 1336.54 726.93 1173.33 726.93 1173.33 726.93 1173.33 703.42 1173.33 703.42 1336.54 703.42 1336.54 703.42 1336.54 726.93"/><polygon class="cls-2" points="1341.76 750.43 1341.76 750.43 1168.11 750.43 1168.11 750.43 1168.11 726.93 1168.11 726.93 1341.76 726.93 1341.76 726.93 1341.76 750.43"/><polygon class="cls-2" points="1353.51 773.93 1353.51 773.93 1156.36 773.93 1156.36 773.93 1156.36 750.43 1156.36 750.43 1353.51 750.43 1353.51 750.43 1353.51 773.93"/><path class="cls-2" d="M3398,6463.94v-11.62h479.18v12.12" transform="translate(-2382 -5675.78)"/><path class="cls-2" d="M3357.84,6478.59V6466h559.5v13.22" transform="translate(-2382 -5675.78)"/><line class="cls-2" x1="1253.81" y1="143.46" x2="1253.81" y2="78.69"/><polygon class="cls-2" points="955 805.14 1549 805.14 1539 821.14 967 821.14 955 805.14"/><path class="cls-2" d="M3349,6496.92s-18,11-18,37a40.32,40.32,0,0,0,21,36h568s17-8,17-40-16-33-16-33" transform="translate(-2382 -5675.78)"/><path class="cls-1" d="M2403,6571.92h-17a4,4,0,0,1-2.83-1.17h0a4,4,0,0,1-1.17-2.83h0c0-.36,0-.72,0-1.08h0a51,51,0,0,1,51-49.92h0a50.86,50.86,0,0,1,18.74,3.56h0a4,4,0,0,1,2.25,5.19h0a4,4,0,0,1-5.19,2.25h0a42.85,42.85,0,0,0-15.8-3h0a43,43,0,0,0-42.82,39H2568a4,4,0,0,1,4,4h0a4,4,0,0,1-4,4H2403Z" transform="translate(-2382 -5675.78)"/><path class="cls-1" d="M2586,6570.92a4,4,0,0,1-4-4h0a4,4,0,0,1,4-4h19a4,4,0,0,1,4,4h0a4,4,0,0,1-4,4h-19Z" transform="translate(-2382 -5675.78)"/></g></svg>