<svg id="Layer_1" data-name="Layer 1" xmlns="http://www.w3.org/2000/svg" viewBox="0 0 411.06 379.78"><defs><style>.cls-1,.cls-2{fill:none;}.cls-1{stroke:#bdf271;stroke-width:10px;}.cls-2{stroke:#01a2a6;stroke-width:13px;}</style></defs><title>island</title><line class="cls-1" x1="280.05" y1="229.29" x2="305.54" y2="230.79"/><line class="cls-1" x1="283.05" y1="272.78" x2="314.54" y2="283.28"/><path class="cls-1" d="M8721,5823.16s15,30,40.5,25.5,28.5-34.5,63-25.5,49.5,24,84,19.5,49.5-22.5,49.5-22.5" transform="translate(-8668.96 -5497.88)"/><path class="cls-1" d="M8923,5594s-12-63,32-84,65,11,65,11" transform="translate(-8668.96 -5497.88)"/><path class="cls-1" d="M8922,5602s-39.55-66-80-49c-31,13-28,44-28,44" transform="translate(-8668.96 -5497.88)"/><path class="cls-1" d="M8930,5613s-56-37-94,3c-26.32,27.7-6,60-6,60" transform="translate(-8668.96 -5497.88)"/><path class="cls-1" d="M8932,5600s35.17-88.78,110.5-50.37c34.5,17.59,32.5,43.59,32.5,43.59" transform="translate(-8668.96 -5497.88)"/><path class="cls-2" d="M9004,5871.16c-27.8-54.82-90-93-162.21-93s-134.42,38.18-162.21,93Z" transform="translate(-8668.96 -5497.88)"/><path class="cls-2" d="M8952,5814.39s6-180-33-227.32c57,44.65,69,257.09,69,257.09" transform="translate(-8668.96 -5497.88)"/><line class="cls-1" x1="280.04" y1="70.99" x2="300.04" y2="99.86"/><line class="cls-1" x1="298.04" y1="55.65" x2="325.04" y2="92.64"/><line class="cls-1" x1="325.04" y1="46.63" x2="342.04" y2="85.42"/><line class="cls-1" x1="353.04" y1="44.83" x2="359.04" y2="80.01"/><line class="cls-1" x1="381.04" y1="60.16" x2="379.04" y2="82.72"/><line class="cls-1" x1="235.04" y1="105.12" x2="247.04" y2="135.12"/><line class="cls-1" x1="201.04" y1="104.12" x2="225.04" y2="136.12"/><line class="cls-1" x1="174.04" y1="116.12" x2="201.04" y2="145.12"/><line class="cls-1" x1="157.04" y1="147.12" x2="177.04" y2="156.12"/><line class="cls-1" x1="211.04" y1="62.12" x2="211.04" y2="80.12"/><line class="cls-1" x1="173.04" y1="55.12" x2="185.04" y2="83.12"/><line class="cls-1" x1="260.04" y1="42.12" x2="273.04" y2="56.12"/><line class="cls-1" x1="291.04" y1="13.12" x2="299.04" y2="40.12"/></svg>