<svg xmlns="http://www.w3.org/2000/svg" width="18.969" height="18.969" viewBox="0 0 18.969 18.969">
  <metadata><?xpacket begin="﻿" id="W5M0MpCehiHzreSzNTczkc9d"?>
<x:xmpmeta xmlns:x="adobe:ns:meta/" x:xmptk="Adobe XMP Core 5.6-c138 79.159824, 2016/09/14-01:09:01        ">
   <rdf:RDF xmlns:rdf="http://www.w3.org/1999/02/22-rdf-syntax-ns#">
      <rdf:Description rdf:about=""/>
   </rdf:RDF>
</x:xmpmeta>
                                                                                                    
                                                                                                    
                                                                                                    
                                                                                                    
                                                                                                    
                                                                                                    
                                                                                                    
                                                                                                    
                                                                                                    
                                                                                                    
                                                                                                    
                                                                                                    
                                                                                                    
                                                                                                    
                                                                                                    
                                                                                                    
                                                                                                    
                                                                                                    
                                                                                                    
                                                                                                    
                           
<?xpacket end="w"?></metadata>
<defs>
    <style>
      .cls-1 {
        fill: #c1c1c1;
        fill-rule: evenodd;
      }
    </style>
  </defs>
  <path id="Forma_1" data-name="Forma 1" class="cls-1" d="M9.994,0.509A9.485,9.485,0,1,0,19.48,9.994,9.486,9.486,0,0,0,9.994.509Zm1.975,14.7q-0.732.288-1.168,0.44a3.083,3.083,0,0,1-1.013.152,2.027,2.027,0,0,1-1.379-.433,1.4,1.4,0,0,1-.491-1.1,4.027,4.027,0,0,1,.036-0.53c0.025-.179.064-0.382,0.118-0.609l0.611-2.158c0.054-.209.1-0.405,0.137-0.588a2.615,2.615,0,0,0,.055-0.509A0.782,0.782,0,0,0,8.7,9.3,0.968,0.968,0,0,0,8.052,9.14a1.712,1.712,0,0,0-.486.072c-0.165.051-.308,0.1-0.425,0.142L7.3,8.689q0.6-.244,1.148-0.418A3.39,3.39,0,0,1,9.487,8.1a1.983,1.983,0,0,1,1.359.426,1.415,1.415,0,0,1,.477,1.1c0,0.094-.011.26-0.033,0.5a3.341,3.341,0,0,1-.122.652L10.56,12.926q-0.074.26-.134,0.59a3.1,3.1,0,0,0-.059.5,0.724,0.724,0,0,0,.192.584,1.074,1.074,0,0,0,.663.156,1.886,1.886,0,0,0,.5-0.079,2.8,2.8,0,0,0,.406-0.136ZM11.862,6.475a1.452,1.452,0,0,1-1.024.395A1.468,1.468,0,0,1,9.81,6.475a1.262,1.262,0,0,1-.428-0.958,1.275,1.275,0,0,1,.428-0.96,1.457,1.457,0,0,1,1.028-.4,1.441,1.441,0,0,1,1.024.4A1.293,1.293,0,0,1,11.862,6.475Z" transform="translate(-0.5 -0.5)"/>
</svg>
