<svg xmlns="http://www.w3.org/2000/svg" width="29.6" height="29.59" viewBox="0 0 29.6 29.59">
  <metadata><?xpacket begin="﻿" id="W5M0MpCehiHzreSzNTczkc9d"?>
<x:xmpmeta xmlns:x="adobe:ns:meta/" x:xmptk="Adobe XMP Core 5.6-c138 79.159824, 2016/09/14-01:09:01        ">
   <rdf:RDF xmlns:rdf="http://www.w3.org/1999/02/22-rdf-syntax-ns#">
      <rdf:Description rdf:about=""/>
   </rdf:RDF>
</x:xmpmeta>
                                                                                                    
                                                                                                    
                                                                                                    
                                                                                                    
                                                                                                    
                                                                                                    
                                                                                                    
                                                                                                    
                                                                                                    
                                                                                                    
                                                                                                    
                                                                                                    
                                                                                                    
                                                                                                    
                                                                                                    
                                                                                                    
                                                                                                    
                                                                                                    
                                                                                                    
                                                                                                    
                           
<?xpacket end="w"?></metadata>
<defs>
    <style>
      .cls-1 {
        fill: #fff;
        fill-rule: evenodd;
      }
    </style>
  </defs>
  <path id="Forma_1" data-name="Forma 1" class="cls-1" d="M1290.37,4817.18a14.8,14.8,0,1,0,14.79,14.8A14.8,14.8,0,0,0,1290.37,4817.18Zm7.75,21.99a0.559,0.559,0,0,1-.56.56h-14.39a0.566,0.566,0,0,1-.56-0.56v-14.38a0.566,0.566,0,0,1,.56-0.56h14.39a0.559,0.559,0,0,1,.56.56v14.38Zm-10.85-7.19a3.1,3.1,0,1,0,3.1-3.1A3.1,3.1,0,0,0,1287.27,4831.98Zm6.2-6.2h3.1v3.1h-3.1v-3.1Zm1.51,6.2a4.615,4.615,0,0,1-9.23,0,2.938,2.938,0,0,1,.11-0.78h-1.7v6.98h12.41v-6.98h-1.69A3.4,3.4,0,0,1,1294.98,4831.98Z" transform="translate(-1275.56 -4817.19)"/>
</svg>
