<svg xmlns="http://www.w3.org/2000/svg" width="27.56" height="27.56" viewBox="0 0 27.56 27.56">
  <metadata><?xpacket begin="﻿" id="W5M0MpCehiHzreSzNTczkc9d"?>
<x:xmpmeta xmlns:x="adobe:ns:meta/" x:xmptk="Adobe XMP Core 5.6-c138 79.159824, 2016/09/14-01:09:01        ">
   <rdf:RDF xmlns:rdf="http://www.w3.org/1999/02/22-rdf-syntax-ns#">
      <rdf:Description rdf:about=""/>
   </rdf:RDF>
</x:xmpmeta>
                                                                                                    
                                                                                                    
                                                                                                    
                                                                                                    
                                                                                                    
                                                                                                    
                                                                                                    
                                                                                                    
                                                                                                    
                                                                                                    
                                                                                                    
                                                                                                    
                                                                                                    
                                                                                                    
                                                                                                    
                                                                                                    
                                                                                                    
                                                                                                    
                                                                                                    
                                                                                                    
                           
<?xpacket end="w"?></metadata>
<defs>
    <style>
      .cls-1 {
        fill: #fff;
        fill-rule: evenodd;
      }
    </style>
  </defs>
  <path id="Forma_1" data-name="Forma 1" class="cls-1" d="M1249.72,4818a13.78,13.78,0,1,0,13.78,13.78A13.793,13.793,0,0,0,1249.72,4818Zm6.15,10.63c0.01,0.14.01,0.27,0.01,0.41a9.017,9.017,0,0,1-13.89,7.6,6.533,6.533,0,0,0,4.7-1.31,3.2,3.2,0,0,1-2.97-2.21,3.053,3.053,0,0,0,.6.06,3.336,3.336,0,0,0,.84-0.11,3.176,3.176,0,0,1-2.55-3.11v-0.04a3.2,3.2,0,0,0,1.44.4,3.174,3.174,0,0,1-1.41-2.64,3.216,3.216,0,0,1,.43-1.6,9.024,9.024,0,0,0,6.54,3.32,2.979,2.979,0,0,1-.09-0.73,3.176,3.176,0,0,1,5.49-2.17,6.265,6.265,0,0,0,2.02-.77,3.187,3.187,0,0,1-1.4,1.76,6.541,6.541,0,0,0,1.82-.5A6.479,6.479,0,0,1,1255.87,4828.63Z" transform="translate(-1235.94 -4818)"/>
</svg>
